<svg id="Layer_1" data-name="Layer 1" xmlns="http://www.w3.org/2000/svg" viewBox="0 0 220.34 64.5"><defs><style>.cls-1{fill:#005984}</style></defs><path class="cls-1" d="M1.75 25.54V3.21h4.61a9.83 9.83 0 0 1 3.5.49A5 5 0 0 1 12 5.34a8.91 8.91 0 0 1 1.58 3.53 25 25 0 0 1 .49 5.48 24.58 24.58 0 0 1-.5 5.51A9 9 0 0 1 12 23.4 4.93 4.93 0 0 1 9.86 25a9.8 9.8 0 0 1-3.5.5zm3.76-3.27h.9a6.24 6.24 0 0 0 1.74-.19 1.75 1.75 0 0 0 .92-.66 6.12 6.12 0 0 0 .93-2.57 28.56 28.56 0 0 0 .28-4.5A28.28 28.28 0 0 0 10 9.87a6.17 6.17 0 0 0-.91-2.58 1.79 1.79 0 0 0-.92-.65 5.82 5.82 0 0 0-1.74-.2h-.9zM27 9.19v16.35h-3.1v-1.72a7.88 7.88 0 0 1-2 1.6 3.8 3.8 0 0 1-1.89.52 2.65 2.65 0 0 1-2.39-1.07 7.44 7.44 0 0 1-.7-3.82V9.19h3.42v12a3.37 3.37 0 0 0 .26 1.49.82.82 0 0 0 .78.49 2.27 2.27 0 0 0 1.19-.33 3.21 3.21 0 0 0 1-1V9.19zm6.91 5.38l3.73-5.38h3.73l-3.67 5.1 4 11.25h-3.48l-2.91-8.37-1.4 1.95v6.42h-3.39V3.21h3.39zm15.41 4.87h3.32a7.82 7.82 0 0 1-1.43 4.81 5 5 0 0 1-7.8-.47 11.87 11.87 0 0 1-1.41-6.4A11.89 11.89 0 0 1 43.41 11a4.51 4.51 0 0 1 4.07-2.16 4.44 4.44 0 0 1 3.84 1.86 9.27 9.27 0 0 1 1.32 5.38v1.74H45.5V18a10.56 10.56 0 0 0 .5 3.76c.34.85.83 1.27 1.47 1.27a1.46 1.46 0 0 0 1.35-.91 6.49 6.49 0 0 0 .5-2.68zm-3.73-4.23h3.7a5.65 5.65 0 0 0-.48-2.58 1.48 1.48 0 0 0-1.33-.91 1.44 1.44 0 0 0-1.27.85 7.39 7.39 0 0 0-.62 2.64zM60.3 25.54V3.21h10.23v3.47H64v5.59h5v3.53h-5V22h6.91v3.52zm13.14 0V9.19h3.09v1.71a7.72 7.72 0 0 1 1.94-1.56 4 4 0 0 1 1.94-.51 2.67 2.67 0 0 1 2.38 1.06 7.42 7.42 0 0 1 .71 3.82v11.83h-3.43v-12a3.25 3.25 0 0 0-.26-1.47.83.83 0 0 0-.81-.47 2.26 2.26 0 0 0-1.2.33 3.37 3.37 0 0 0-1 1v12.61zm20.04-6.1h3.32a7.88 7.88 0 0 1-1.43 4.81 5 5 0 0 1-7.81-.47 12 12 0 0 1-1.38-6.38 12 12 0 0 1 1.38-6.4 4.53 4.53 0 0 1 4.08-2.16 4.44 4.44 0 0 1 3.84 1.86 9.27 9.27 0 0 1 1.32 5.38v1.06c0 .24 0 .47-.05.68h-7.09V18a10.56 10.56 0 0 0 .51 3.74c.33.85.82 1.27 1.47 1.27a1.43 1.43 0 0 0 1.36-.89 6.31 6.31 0 0 0 .48-2.68zm-3.73-4.23h3.7a5.65 5.65 0 0 0-.45-2.58 1.48 1.48 0 0 0-1.33-.91 1.42 1.42 0 0 0-1.27.85 7.18 7.18 0 0 0-.65 2.64zm9.81 10.33V9.19h3.09v1.92a6.31 6.31 0 0 1 1.86-1.76 4.13 4.13 0 0 1 2.14-.55h.67a.18.18 0 0 0 .09 0v3.7a6 6 0 0 0-1-.4 2.54 2.54 0 0 0-.74-.12 3 3 0 0 0-1.55.4 3.93 3.93 0 0 0-1.12 1.33v11.83zm11.18-4.98a4.11 4.11 0 0 1-1.64-2.06 9.8 9.8 0 0 1-.53-3.48 7.5 7.5 0 0 1 1.23-4.67 4.37 4.37 0 0 1 3.65-1.58 5.1 5.1 0 0 1 2.31.5 4.07 4.07 0 0 1 1.63 1.48 4.85 4.85 0 0 1 1.27-1.47 3 3 0 0 1 1.55-.54v2.86l-.36-.06h-.31a1.74 1.74 0 0 0-.84.2 1.56 1.56 0 0 0-.59.58c.09.49.15 1 .2 1.44s.06.94.06 1.39a7.28 7.28 0 0 1-1.24 4.59 4.38 4.38 0 0 1-3.65 1.58c-.17 0-.42 0-.76-.05h-.09a1.65 1.65 0 0 0-.72.39.72.72 0 0 0-.26.56c0 .48.75.74 2.23.79h.82a9 9 0 0 1 4.3 1.05 3 3 0 0 1 1.37 2.67 3.51 3.51 0 0 1-1.75 3.09 8.94 8.94 0 0 1-4.84 1.12 10.16 10.16 0 0 1-4.37-.75A2.35 2.35 0 0 1 107.9 28a2 2 0 0 1 .52-1.27 5.07 5.07 0 0 1 1.56-1.2 3.35 3.35 0 0 1-1.12-.92 1.87 1.87 0 0 1-.36-1.12 2.25 2.25 0 0 1 .5-1.4 8.31 8.31 0 0 1 1.74-1.53zm1.83 5.32a3.65 3.65 0 0 0-.88.74 1 1 0 0 0-.28.66 1 1 0 0 0 .71.92 4.92 4.92 0 0 0 2 .33 6.11 6.11 0 0 0 2.31-.34c.54-.23.81-.55.81-1 0-.72-1.49-1.17-4.47-1.34zM112 15a7.08 7.08 0 0 0 .37 2.67 1.22 1.22 0 0 0 1.15.85 1.21 1.21 0 0 0 1.16-.85A7 7 0 0 0 115 15a7 7 0 0 0-.38-2.66 1.21 1.21 0 0 0-2.31 0A7.06 7.06 0 0 0 112 15zm15.55 10.84a7.81 7.81 0 0 1-1.82 3.85 4.53 4.53 0 0 1-3.28 1.16h-.64l-.65-.06v-3h.45a2.83 2.83 0 0 0 1.93-.54 2.15 2.15 0 0 0 .61-1.7 7 7 0 0 0-.12-1.12c-.08-.47-.26-1.3-.55-2.49l-3.06-12.75h3.4l1.77 8.87a10.91 10.91 0 0 1 .15 1.18c.06.6.13 1.4.21 2.39q.06-1.29.15-2.22a13 13 0 0 1 .16-1.33l1.87-8.89h3.24zm19.01-15.43a6.89 6.89 0 0 0-.66-3.24 2 2 0 0 0-1.82-1.1c-1 0-1.69.67-2.15 2a21.45 21.45 0 0 0-.68 6.29 21.19 21.19 0 0 0 .69 6.34c.46 1.34 1.19 2 2.2 2a2 2 0 0 0 1.93-1.19 8 8 0 0 0 .64-3.64v-.34h3.43v.31a9.81 9.81 0 0 1-1.63 6 5.25 5.25 0 0 1-4.43 2.16 5.33 5.33 0 0 1-4.9-3q-1.67-3-1.66-8.7t1.66-8.66a5.31 5.31 0 0 1 4.9-2.95 5.18 5.18 0 0 1 4.34 2 9.1 9.1 0 0 1 1.58 5.72zm12.62 9.03h3.32a8 8 0 0 1-1.43 4.81 5 5 0 0 1-7.81-.47 12 12 0 0 1-1.38-6.38 12 12 0 0 1 1.38-6.4 4.53 4.53 0 0 1 4.08-2.16 4.44 4.44 0 0 1 3.84 1.86 9.27 9.27 0 0 1 1.32 5.38v1.06c0 .24 0 .47-.05.68h-7.08V18a10.56 10.56 0 0 0 .51 3.74c.33.85.82 1.27 1.47 1.27a1.44 1.44 0 0 0 1.34-.91 6.47 6.47 0 0 0 .49-2.66zm-3.73-4.23h3.69a5.66 5.66 0 0 0-.47-2.58 1.48 1.48 0 0 0-1.33-.91 1.43 1.43 0 0 0-1.27.85 7.39 7.39 0 0 0-.62 2.64zm9.81 10.33V9.19h3.09v1.71a7.9 7.9 0 0 1 1.94-1.56 4.08 4.08 0 0 1 1.94-.51 2.66 2.66 0 0 1 2.38 1.06 7.42 7.42 0 0 1 .71 3.82v11.83h-3.43v-12a3.41 3.41 0 0 0-.25-1.47.84.84 0 0 0-.78-.49 2.26 2.26 0 0 0-1.2.33 3.37 3.37 0 0 0-1 1v12.63zM177.2 12V9.19h1.8V4.73h3.33v4.46h2.21V12h-2.21v8.49a4.2 4.2 0 0 0 .32 2.08 1.5 1.5 0 0 0 1.25.42h.55v2.84l-.94.14a8 8 0 0 1-.81.05 3.33 3.33 0 0 1-2.85-1.14 6.85 6.85 0 0 1-.85-3.93V12zm15.92 7.44h3.32a8 8 0 0 1-1.44 4.79 5 5 0 0 1-7.81-.47 12 12 0 0 1-1.38-6.38A12 12 0 0 1 187.2 11a4.53 4.53 0 0 1 4.08-2.16 4.41 4.41 0 0 1 3.83 1.86 9.19 9.19 0 0 1 1.33 5.38v1.06c0 .24 0 .47-.05.68h-7.09V18a10.56 10.56 0 0 0 .51 3.74c.34.85.83 1.27 1.48 1.27a1.44 1.44 0 0 0 1.34-.91 6.47 6.47 0 0 0 .49-2.66zm-3.74-4.23h3.7a5.8 5.8 0 0 0-.47-2.58 1.48 1.48 0 0 0-1.33-.91 1.42 1.42 0 0 0-1.27.85 7.36 7.36 0 0 0-.63 2.64zm9.82 10.33V9.19h3.09v1.92a6.43 6.43 0 0 1 1.86-1.76 4.13 4.13 0 0 1 2.14-.55h.67a.18.18 0 0 0 .09 0v3.7a5.62 5.62 0 0 0-1-.4 2.54 2.54 0 0 0-.74-.12 3 3 0 0 0-1.55.4 3.83 3.83 0 0 0-1.22 1.27v11.89zM6.94 35.14v1.71l-.58-.12L6 36.7a1.61 1.61 0 0 0-1.36.48 4.28 4.28 0 0 0-.36 2.21v2.13h2.54v1.87H4.28v14h-2.1v-14H-.21v-1.87h2.39v-1.86A7 7 0 0 1 2.86 36a2.79 2.79 0 0 1 2.44-1 8.23 8.23 0 0 1 .91 0 5.57 5.57 0 0 1 .73.14zm1.19 14.33q0-4.26 1.18-6.29a3.93 3.93 0 0 1 3.64-2 3.82 3.82 0 0 1 3.54 2.06 13 13 0 0 1 1.17 6.25 13.05 13.05 0 0 1-1.17 6.25A3.82 3.82 0 0 1 13 57.78a3.92 3.92 0 0 1-3.64-2q-1.23-2.06-1.23-6.31zm2.17 0a14.13 14.13 0 0 0 .61 5 2.07 2.07 0 0 0 2 1.46 2 2 0 0 0 1.93-1.52 14.45 14.45 0 0 0 .61-4.9 14.62 14.62 0 0 0-.61-4.92A2 2 0 0 0 12.92 43a2.07 2.07 0 0 0-2 1.47 14.3 14.3 0 0 0-.62 5zm10.26 7.91V41.52h2.13v1.84a5.64 5.64 0 0 1 1.67-1.65 3.75 3.75 0 0 1 1.94-.52h.46v2.05h-.46a3.66 3.66 0 0 0-2.06.59 5.06 5.06 0 0 0-1.55 1.88v11.67zm13.19-14.02h-2.12v-1.84h2.12v-5.28h2.07v5.28h2.83v1.84h-2.83v10.17a3.79 3.79 0 0 0 .31 1.88 1.23 1.23 0 0 0 1.12.48 9.52 9.52 0 0 0 1.29-.2h.11v1.76c-.42.11-.8.19-1.16.25a5.66 5.66 0 0 1-.91.09 2.77 2.77 0 0 1-2.13-.79 3.35 3.35 0 0 1-.7-2.32zm6.93 14.02V35.29h2.1v7.89a7.12 7.12 0 0 1 1.87-1.57 4 4 0 0 1 1.92-.49 2.65 2.65 0 0 1 2.3 1 5.25 5.25 0 0 1 .73 3.09v12.17h-2.1V45.92a4.67 4.67 0 0 0-.4-2.29 1.5 1.5 0 0 0-1.38-.63 2.56 2.56 0 0 0-1.5.53 6 6 0 0 0-1.44 1.56v12.29zm19.14-5.19h2a7.06 7.06 0 0 1-1.31 4.12 3.84 3.84 0 0 1-3.15 1.47 3.92 3.92 0 0 1-3.64-2 13 13 0 0 1-1.18-6.28 13 13 0 0 1 1.18-6.29 3.93 3.93 0 0 1 3.64-2A3.8 3.8 0 0 1 60.8 43a10.44 10.44 0 0 1 1.2 5.49v1.25h-7.31a12.84 12.84 0 0 0 .64 4.74 2.11 2.11 0 0 0 2 1.41 2 2 0 0 0 1.76-1 5.39 5.39 0 0 0 .73-2.7zM54.71 48h5.07v-.61A7.22 7.22 0 0 0 59.2 44a2 2 0 0 0-1.87-1 2.06 2.06 0 0 0-1.9 1.21 9.15 9.15 0 0 0-.72 3.79zm15 9.38V35.29h3.7c2.39 0 4.17.49 5.35 1.49a5.56 5.56 0 0 1 1.77 4.5 5.54 5.54 0 0 1-1.77 4.5 8.17 8.17 0 0 1-5.35 1.48H72v10.12zM72 45.4h1.93a4.91 4.91 0 0 0 3.35-1 3.78 3.78 0 0 0 1.13-3 3.89 3.89 0 0 0-1.12-3 4.92 4.92 0 0 0-3.36-1H72zm16.61 6.79h2a6.92 6.92 0 0 1-1.31 4.12 3.84 3.84 0 0 1-3.15 1.47 3.93 3.93 0 0 1-3.64-2q-1.17-2-1.17-6.28t1.17-6.29a3.94 3.94 0 0 1 3.64-2A3.8 3.8 0 0 1 89.59 43a10.43 10.43 0 0 1 1.16 5.49v.76a3.89 3.89 0 0 1 0 .49h-7.27a13.06 13.06 0 0 0 .64 4.74 2.11 2.11 0 0 0 2 1.41 2 2 0 0 0 1.76-1 5.39 5.39 0 0 0 .73-2.7zM83.5 48h5.07v-.61A7.24 7.24 0 0 0 88 44a2 2 0 0 0-1.88-1 2.05 2.05 0 0 0-1.89 1.21A9.13 9.13 0 0 0 83.5 48zm10.17 9.38V41.52h2.13v1.84a5.66 5.66 0 0 1 1.68-1.65 3.73 3.73 0 0 1 1.94-.52h.46v2.05h-.46a3.61 3.61 0 0 0-2.06.59 5.08 5.08 0 0 0-1.56 1.88v11.67z"/><path class="cls-1" d="M107 35.14v1.71c-.24-.06-.44-.09-.58-.12h-.36a1.6 1.6 0 0 0-1.35.48 4.28 4.28 0 0 0-.36 2.21v2.13h2.53v1.87h-2.53v14h-2.15v-14h-2.38v-1.9h2.38v-1.86a6.93 6.93 0 0 1 .69-3.69 2.78 2.78 0 0 1 2.43-1 8.12 8.12 0 0 1 .91 0 5.32 5.32 0 0 1 .77.17zm1.16 14.33q0-4.26 1.17-6.29a4 4 0 0 1 3.65-2 3.82 3.82 0 0 1 3.54 2.06 13 13 0 0 1 1.17 6.25 13.05 13.05 0 0 1-1.17 6.25 3.82 3.82 0 0 1-3.52 2.04 4 4 0 0 1-3.65-2q-1.19-2.06-1.19-6.31zm2.16 0a14.13 14.13 0 0 0 .61 5 2.09 2.09 0 0 0 2 1.46 2 2 0 0 0 1.93-1.52 14.5 14.5 0 0 0 .6-4.9 14.68 14.68 0 0 0-.6-4.92A2 2 0 0 0 113 43a2.09 2.09 0 0 0-2 1.47 14.3 14.3 0 0 0-.68 5zm10.27 7.91V41.52h2.13v1.84a5.64 5.64 0 0 1 1.67-1.65 3.75 3.75 0 0 1 1.94-.52h.46v2.05h-.46a3.64 3.64 0 0 0-2.06.59 5.06 5.06 0 0 0-1.55 1.88v11.67zm8.09 0V41.52h2.11v1.66a7.06 7.06 0 0 1 1.85-1.57 3.85 3.85 0 0 1 1.91-.49 2.91 2.91 0 0 1 1.74.51 3.73 3.73 0 0 1 1.19 1.61 8.78 8.78 0 0 1 2-1.63 3.85 3.85 0 0 1 1.88-.49 2.67 2.67 0 0 1 2.31 1 5.17 5.17 0 0 1 .75 3.09v12.17h-2.15V45.92a4.78 4.78 0 0 0-.38-2.3 1.44 1.44 0 0 0-1.34-.64 2.6 2.6 0 0 0-1.52.53 5.61 5.61 0 0 0-1.42 1.56v12.31h-2.14V45.92a4.75 4.75 0 0 0-.39-2.3 1.47 1.47 0 0 0-1.36-.64 2.56 2.56 0 0 0-1.5.53 5.78 5.78 0 0 0-1.43 1.56v12.31zm19.38-19.59v-2.5h2.14v2.5zm0 19.59V41.52h2.14v15.86zm5.87 0V41.52H156v1.66a7.23 7.23 0 0 1 1.85-1.57 3.85 3.85 0 0 1 1.91-.49 2.69 2.69 0 0 1 2.3 1 5.14 5.14 0 0 1 .75 3.09v12.17h-2.1V45.92a4.75 4.75 0 0 0-.39-2.3A1.49 1.49 0 0 0 159 43a2.75 2.75 0 0 0-1.58.55 5 5 0 0 0-1.42 1.52v12.31zm13.6-5.86a4.32 4.32 0 0 1-1-1.86 9.58 9.58 0 0 1-.35-2.75 7.16 7.16 0 0 1 1-4.22 3.5 3.5 0 0 1 3-1.44 4.17 4.17 0 0 1 1.79.36 3.27 3.27 0 0 1 1.29 1.08 3.89 3.89 0 0 1 1.21-1.08 2.74 2.74 0 0 1 1.39-.36h.14v2h-.61a1.77 1.77 0 0 0-.78.17 3 3 0 0 0-.76.53 10.54 10.54 0 0 1 .35 1.67 14.26 14.26 0 0 1 .11 1.74 6.38 6.38 0 0 1-1 3.92 3.54 3.54 0 0 1-3 1.37 4.55 4.55 0 0 1-.61 0c-.22 0-.46-.06-.74-.11a1.47 1.47 0 0 0-.85.31.79.79 0 0 0-.36.61 1 1 0 0 0 .21.61 1.16 1.16 0 0 0 .55.39 14.81 14.81 0 0 0 1.8.4 17.91 17.91 0 0 1 2.11.47 5.92 5.92 0 0 1 2.69 1.38 3.05 3.05 0 0 1 .77 2.18 3.25 3.25 0 0 1-1.52 2.79 6.87 6.87 0 0 1-4 1.06 6.73 6.73 0 0 1-3.87-1 3.1 3.1 0 0 1-1.44-2.74 2.67 2.67 0 0 1 .54-1.62 5.87 5.87 0 0 1 1.71-1.48 3.75 3.75 0 0 1-1.19-.92 1.7 1.7 0 0 1-.38-1.11 1.9 1.9 0 0 1 .41-1.2 4.7 4.7 0 0 1 1.39-1.15zm1.76 4.95a4.51 4.51 0 0 0-1.66 1 1.94 1.94 0 0 0-.5 1.34 1.71 1.71 0 0 0 .87 1.5 4.52 4.52 0 0 0 2.39.55 5.18 5.18 0 0 0 2.57-.53 1.59 1.59 0 0 0 .91-1.46 1.74 1.74 0 0 0-1-1.56 10.82 10.82 0 0 0-3.58-.84zm1-13.49a1.82 1.82 0 0 0-1.71.91 6.37 6.37 0 0 0-.52 3 6.24 6.24 0 0 0 .52 3 1.83 1.83 0 0 0 1.71.9 1.74 1.74 0 0 0 1.64-.91 6.58 6.58 0 0 0 .5-3 6.57 6.57 0 0 0-.51-3 1.72 1.72 0 0 0-1.65-.88zm10.79 14.4l4.78-22.09H189l4.84 22.09h-2.39l-1.28-6.5h-5.57l-1.28 6.5zm4-8.58h4.62l-2.32-11.56zM196 57.38V41.52h2.14v1.84a5.62 5.62 0 0 1 1.66-1.65 3.79 3.79 0 0 1 1.95-.52h.46v2.05h-.46a3.61 3.61 0 0 0-2.06.59 5 5 0 0 0-1.55 1.88v11.67zm8.45-14.02h-2.11v-1.84h2.11v-5.28h2.08v5.28h2.83v1.84h-2.83v10.17a3.79 3.79 0 0 0 .31 1.88 1.23 1.23 0 0 0 1.12.48 9.46 9.46 0 0 0 1.28-.2h.12v1.76c-.42.11-.81.19-1.16.25a5.66 5.66 0 0 1-.91.09 2.77 2.77 0 0 1-2.13-.77 3.35 3.35 0 0 1-.71-2.32zm6.15 10.17l2-.46a3.79 3.79 0 0 0 .95 2.15 2.43 2.43 0 0 0 1.83.79 2.22 2.22 0 0 0 1.68-.68 2.46 2.46 0 0 0 .65-1.77c0-1.09-1-2.29-2.87-3.58a13 13 0 0 1-3.05-2.59 3.75 3.75 0 0 1-.71-2.23 3.85 3.85 0 0 1 3.95-4 4.29 4.29 0 0 1 2.87.93 5.28 5.28 0 0 1 1.59 2.85l-1.8.55a4.26 4.26 0 0 0-1-1.94 2.14 2.14 0 0 0-1.6-.66 2 2 0 0 0-1.45.55 1.85 1.85 0 0 0-.56 1.41c0 .92.93 2 2.79 3.25.79.54 1.41 1 1.85 1.3a5.42 5.42 0 0 1 1.56 1.79 4.78 4.78 0 0 1 .51 2.22 4.12 4.12 0 0 1-1.24 3.16 4.62 4.62 0 0 1-3.34 1.18 4.4 4.4 0 0 1-3.06-1.13 5.17 5.17 0 0 1-1.55-3.09z"/></svg>
